<mxfile host="app.diagrams.net" modified="2022-03-17T13:51:55.483Z" agent="5.0 (Windows NT 10.0; Win64; x64) AppleWebKit/537.36 (KHTML, like Gecko) Chrome/99.0.4844.51 Safari/537.36" etag="rXhoD9VkeVzvkjKSeXIH" version="17.1.3" type="github">
  <diagram id="C5RBs43oDa-KdzZeNtuy" name="Page-1">
    <mxGraphModel dx="1021" dy="567" grid="1" gridSize="10" guides="1" tooltips="1" connect="1" arrows="1" fold="1" page="1" pageScale="1" pageWidth="827" pageHeight="1169" math="0" shadow="0">
      <root>
        <mxCell id="WIyWlLk6GJQsqaUBKTNV-0" />
        <mxCell id="WIyWlLk6GJQsqaUBKTNV-1" parent="WIyWlLk6GJQsqaUBKTNV-0" />
        <mxCell id="-UChJ8_I69v-dSxYp6aU-0" value="saida" style="shape=document;whiteSpace=wrap;html=1;boundedLbl=1;" vertex="1" parent="WIyWlLk6GJQsqaUBKTNV-1">
          <mxGeometry x="720" y="90" width="120" height="80" as="geometry" />
        </mxCell>
        <mxCell id="-UChJ8_I69v-dSxYp6aU-1" value="inicio" style="rounded=1;whiteSpace=wrap;html=1;fontStyle=0;strokeColor=#000000;" vertex="1" parent="WIyWlLk6GJQsqaUBKTNV-1">
          <mxGeometry x="560" y="10" width="120" height="60" as="geometry" />
        </mxCell>
        <mxCell id="-UChJ8_I69v-dSxYp6aU-2" value="entrada" style="shape=parallelogram;perimeter=parallelogramPerimeter;whiteSpace=wrap;html=1;fixedSize=1;" vertex="1" parent="WIyWlLk6GJQsqaUBKTNV-1">
          <mxGeometry x="560" y="110" width="120" height="60" as="geometry" />
        </mxCell>
        <mxCell id="-UChJ8_I69v-dSxYp6aU-3" value="processamento" style="rounded=0;whiteSpace=wrap;html=1;" vertex="1" parent="WIyWlLk6GJQsqaUBKTNV-1">
          <mxGeometry x="560" y="185" width="120" height="60" as="geometry" />
        </mxCell>
        <mxCell id="-UChJ8_I69v-dSxYp6aU-4" value="fim" style="rounded=1;whiteSpace=wrap;html=1;" vertex="1" parent="WIyWlLk6GJQsqaUBKTNV-1">
          <mxGeometry x="720" y="10" width="120" height="60" as="geometry" />
        </mxCell>
        <mxCell id="-UChJ8_I69v-dSxYp6aU-5" value="decisÃ£o" style="rhombus;whiteSpace=wrap;html=1;" vertex="1" parent="WIyWlLk6GJQsqaUBKTNV-1">
          <mxGeometry x="730" y="170" width="100" height="90" as="geometry" />
        </mxCell>
        <mxCell id="-UChJ8_I69v-dSxYp6aU-33" style="edgeStyle=orthogonalEdgeStyle;rounded=0;orthogonalLoop=1;jettySize=auto;html=1;entryX=0.5;entryY=0;entryDx=0;entryDy=0;" edge="1" parent="WIyWlLk6GJQsqaUBKTNV-1" source="-UChJ8_I69v-dSxYp6aU-18" target="-UChJ8_I69v-dSxYp6aU-21">
          <mxGeometry relative="1" as="geometry" />
        </mxCell>
        <mxCell id="-UChJ8_I69v-dSxYp6aU-18" value="INICIO" style="rounded=1;whiteSpace=wrap;html=1;strokeColor=#000000;" vertex="1" parent="WIyWlLk6GJQsqaUBKTNV-1">
          <mxGeometry x="270" width="120" height="60" as="geometry" />
        </mxCell>
        <mxCell id="-UChJ8_I69v-dSxYp6aU-23" value="" style="edgeStyle=orthogonalEdgeStyle;rounded=0;orthogonalLoop=1;jettySize=auto;html=1;" edge="1" parent="WIyWlLk6GJQsqaUBKTNV-1" source="-UChJ8_I69v-dSxYp6aU-21" target="-UChJ8_I69v-dSxYp6aU-22">
          <mxGeometry relative="1" as="geometry">
            <Array as="points">
              <mxPoint x="330" y="200" />
              <mxPoint x="330" y="200" />
            </Array>
          </mxGeometry>
        </mxCell>
        <mxCell id="-UChJ8_I69v-dSxYp6aU-21" value="X" style="shape=parallelogram;perimeter=parallelogramPerimeter;whiteSpace=wrap;html=1;fixedSize=1;strokeColor=#000000;" vertex="1" parent="WIyWlLk6GJQsqaUBKTNV-1">
          <mxGeometry x="270" y="80" width="120" height="60" as="geometry" />
        </mxCell>
        <mxCell id="-UChJ8_I69v-dSxYp6aU-25" value="" style="edgeStyle=orthogonalEdgeStyle;rounded=0;orthogonalLoop=1;jettySize=auto;html=1;" edge="1" parent="WIyWlLk6GJQsqaUBKTNV-1" source="-UChJ8_I69v-dSxYp6aU-22" target="-UChJ8_I69v-dSxYp6aU-24">
          <mxGeometry relative="1" as="geometry" />
        </mxCell>
        <mxCell id="-UChJ8_I69v-dSxYp6aU-22" value="Y" style="shape=parallelogram;perimeter=parallelogramPerimeter;whiteSpace=wrap;html=1;fixedSize=1;strokeColor=#000000;" vertex="1" parent="WIyWlLk6GJQsqaUBKTNV-1">
          <mxGeometry x="270" y="160" width="120" height="60" as="geometry" />
        </mxCell>
        <mxCell id="-UChJ8_I69v-dSxYp6aU-30" style="edgeStyle=orthogonalEdgeStyle;rounded=0;orthogonalLoop=1;jettySize=auto;html=1;entryX=0.5;entryY=0;entryDx=0;entryDy=0;" edge="1" parent="WIyWlLk6GJQsqaUBKTNV-1" source="-UChJ8_I69v-dSxYp6aU-24" target="-UChJ8_I69v-dSxYp6aU-27">
          <mxGeometry relative="1" as="geometry" />
        </mxCell>
        <mxCell id="-UChJ8_I69v-dSxYp6aU-24" value="Z=X+Y" style="rounded=0;whiteSpace=wrap;html=1;strokeColor=#000000;" vertex="1" parent="WIyWlLk6GJQsqaUBKTNV-1">
          <mxGeometry x="270" y="245" width="120" height="60" as="geometry" />
        </mxCell>
        <mxCell id="-UChJ8_I69v-dSxYp6aU-32" style="edgeStyle=orthogonalEdgeStyle;rounded=0;orthogonalLoop=1;jettySize=auto;html=1;entryX=0.5;entryY=0;entryDx=0;entryDy=0;" edge="1" parent="WIyWlLk6GJQsqaUBKTNV-1" source="-UChJ8_I69v-dSxYp6aU-27" target="-UChJ8_I69v-dSxYp6aU-29">
          <mxGeometry relative="1" as="geometry" />
        </mxCell>
        <mxCell id="-UChJ8_I69v-dSxYp6aU-27" value="Z" style="shape=document;whiteSpace=wrap;html=1;boundedLbl=1;strokeColor=#000000;" vertex="1" parent="WIyWlLk6GJQsqaUBKTNV-1">
          <mxGeometry x="270" y="330" width="120" height="80" as="geometry" />
        </mxCell>
        <mxCell id="-UChJ8_I69v-dSxYp6aU-29" value="FIM" style="rounded=1;whiteSpace=wrap;html=1;strokeColor=#000000;" vertex="1" parent="WIyWlLk6GJQsqaUBKTNV-1">
          <mxGeometry x="270" y="440" width="120" height="60" as="geometry" />
        </mxCell>
        <mxCell id="-UChJ8_I69v-dSxYp6aU-57" style="edgeStyle=orthogonalEdgeStyle;rounded=0;orthogonalLoop=1;jettySize=auto;html=1;entryX=0.5;entryY=0;entryDx=0;entryDy=0;" edge="1" parent="WIyWlLk6GJQsqaUBKTNV-1" source="-UChJ8_I69v-dSxYp6aU-37" target="-UChJ8_I69v-dSxYp6aU-39">
          <mxGeometry relative="1" as="geometry" />
        </mxCell>
        <mxCell id="-UChJ8_I69v-dSxYp6aU-37" value="INICIO" style="rounded=1;whiteSpace=wrap;html=1;strokeColor=#000000;" vertex="1" parent="WIyWlLk6GJQsqaUBKTNV-1">
          <mxGeometry x="320" y="570" width="120" height="60" as="geometry" />
        </mxCell>
        <mxCell id="-UChJ8_I69v-dSxYp6aU-58" style="edgeStyle=orthogonalEdgeStyle;rounded=0;orthogonalLoop=1;jettySize=auto;html=1;entryX=0.575;entryY=-0.033;entryDx=0;entryDy=0;entryPerimeter=0;" edge="1" parent="WIyWlLk6GJQsqaUBKTNV-1" source="-UChJ8_I69v-dSxYp6aU-39" target="-UChJ8_I69v-dSxYp6aU-41">
          <mxGeometry relative="1" as="geometry" />
        </mxCell>
        <mxCell id="-UChJ8_I69v-dSxYp6aU-39" value="X" style="shape=parallelogram;perimeter=parallelogramPerimeter;whiteSpace=wrap;html=1;fixedSize=1;strokeColor=#000000;" vertex="1" parent="WIyWlLk6GJQsqaUBKTNV-1">
          <mxGeometry x="320" y="660" width="120" height="60" as="geometry" />
        </mxCell>
        <mxCell id="-UChJ8_I69v-dSxYp6aU-47" style="edgeStyle=orthogonalEdgeStyle;rounded=0;orthogonalLoop=1;jettySize=auto;html=1;" edge="1" parent="WIyWlLk6GJQsqaUBKTNV-1" source="-UChJ8_I69v-dSxYp6aU-41" target="-UChJ8_I69v-dSxYp6aU-48">
          <mxGeometry relative="1" as="geometry">
            <mxPoint x="500" y="820" as="targetPoint" />
          </mxGeometry>
        </mxCell>
        <mxCell id="-UChJ8_I69v-dSxYp6aU-41" value="Y" style="shape=parallelogram;perimeter=parallelogramPerimeter;whiteSpace=wrap;html=1;fixedSize=1;strokeColor=#000000;" vertex="1" parent="WIyWlLk6GJQsqaUBKTNV-1">
          <mxGeometry x="310" y="750" width="120" height="60" as="geometry" />
        </mxCell>
        <mxCell id="-UChJ8_I69v-dSxYp6aU-51" value="VERDADEIRO" style="edgeStyle=orthogonalEdgeStyle;rounded=0;orthogonalLoop=1;jettySize=auto;html=1;" edge="1" parent="WIyWlLk6GJQsqaUBKTNV-1" source="-UChJ8_I69v-dSxYp6aU-48">
          <mxGeometry relative="1" as="geometry">
            <mxPoint x="420" y="900" as="targetPoint" />
          </mxGeometry>
        </mxCell>
        <mxCell id="-UChJ8_I69v-dSxYp6aU-55" value="FALSO" style="edgeStyle=orthogonalEdgeStyle;rounded=0;orthogonalLoop=1;jettySize=auto;html=1;" edge="1" parent="WIyWlLk6GJQsqaUBKTNV-1" source="-UChJ8_I69v-dSxYp6aU-48">
          <mxGeometry relative="1" as="geometry">
            <mxPoint x="590" y="920" as="targetPoint" />
          </mxGeometry>
        </mxCell>
        <mxCell id="-UChJ8_I69v-dSxYp6aU-48" value="X&amp;gt;Y" style="rhombus;whiteSpace=wrap;html=1;strokeColor=#000000;" vertex="1" parent="WIyWlLk6GJQsqaUBKTNV-1">
          <mxGeometry x="460" y="820" width="80" height="80" as="geometry" />
        </mxCell>
        <mxCell id="-UChJ8_I69v-dSxYp6aU-53" style="edgeStyle=orthogonalEdgeStyle;rounded=0;orthogonalLoop=1;jettySize=auto;html=1;" edge="1" parent="WIyWlLk6GJQsqaUBKTNV-1" source="-UChJ8_I69v-dSxYp6aU-52">
          <mxGeometry relative="1" as="geometry">
            <mxPoint x="370" y="1000" as="targetPoint" />
          </mxGeometry>
        </mxCell>
        <mxCell id="-UChJ8_I69v-dSxYp6aU-52" value="X&amp;gt;Y" style="shape=document;whiteSpace=wrap;html=1;boundedLbl=1;strokeColor=#000000;" vertex="1" parent="WIyWlLk6GJQsqaUBKTNV-1">
          <mxGeometry x="320" y="890" width="100" height="80" as="geometry" />
        </mxCell>
        <mxCell id="-UChJ8_I69v-dSxYp6aU-60" value="VERDADEIRO" style="edgeStyle=orthogonalEdgeStyle;rounded=0;orthogonalLoop=1;jettySize=auto;html=1;exitX=1;exitY=0.5;exitDx=0;exitDy=0;entryX=0;entryY=0.5;entryDx=0;entryDy=0;" edge="1" parent="WIyWlLk6GJQsqaUBKTNV-1" source="-UChJ8_I69v-dSxYp6aU-65" target="-UChJ8_I69v-dSxYp6aU-66">
          <mxGeometry relative="1" as="geometry">
            <mxPoint x="700" y="959.5" as="targetPoint" />
            <mxPoint x="670" y="959.5" as="sourcePoint" />
          </mxGeometry>
        </mxCell>
        <mxCell id="-UChJ8_I69v-dSxYp6aU-69" value="FALSO" style="edgeStyle=orthogonalEdgeStyle;rounded=0;orthogonalLoop=1;jettySize=auto;html=1;" edge="1" parent="WIyWlLk6GJQsqaUBKTNV-1" source="-UChJ8_I69v-dSxYp6aU-65">
          <mxGeometry relative="1" as="geometry">
            <mxPoint x="510" y="1010" as="targetPoint" />
          </mxGeometry>
        </mxCell>
        <mxCell id="-UChJ8_I69v-dSxYp6aU-65" value="X&amp;lt;Y" style="rhombus;whiteSpace=wrap;html=1;strokeColor=#000000;" vertex="1" parent="WIyWlLk6GJQsqaUBKTNV-1">
          <mxGeometry x="550" y="920" width="80" height="80" as="geometry" />
        </mxCell>
        <mxCell id="-UChJ8_I69v-dSxYp6aU-77" style="edgeStyle=orthogonalEdgeStyle;rounded=0;orthogonalLoop=1;jettySize=auto;html=1;entryX=0;entryY=0.5;entryDx=0;entryDy=0;" edge="1" parent="WIyWlLk6GJQsqaUBKTNV-1" source="-UChJ8_I69v-dSxYp6aU-66" target="-UChJ8_I69v-dSxYp6aU-78">
          <mxGeometry relative="1" as="geometry">
            <mxPoint x="767" y="1030" as="targetPoint" />
            <Array as="points">
              <mxPoint x="780" y="1110" />
              <mxPoint x="290" y="1110" />
              <mxPoint x="290" y="1040" />
            </Array>
          </mxGeometry>
        </mxCell>
        <mxCell id="-UChJ8_I69v-dSxYp6aU-66" value="X&amp;lt;Y" style="shape=document;whiteSpace=wrap;html=1;boundedLbl=1;strokeColor=#000000;" vertex="1" parent="WIyWlLk6GJQsqaUBKTNV-1">
          <mxGeometry x="720" y="920" width="120" height="80" as="geometry" />
        </mxCell>
        <mxCell id="-UChJ8_I69v-dSxYp6aU-71" style="edgeStyle=orthogonalEdgeStyle;rounded=0;orthogonalLoop=1;jettySize=auto;html=1;entryX=0.5;entryY=1;entryDx=0;entryDy=0;" edge="1" parent="WIyWlLk6GJQsqaUBKTNV-1" source="-UChJ8_I69v-dSxYp6aU-70" target="-UChJ8_I69v-dSxYp6aU-78">
          <mxGeometry relative="1" as="geometry">
            <mxPoint x="520.0588235294119" y="1100" as="targetPoint" />
            <Array as="points">
              <mxPoint x="510" y="1090" />
              <mxPoint x="370" y="1090" />
            </Array>
          </mxGeometry>
        </mxCell>
        <mxCell id="-UChJ8_I69v-dSxYp6aU-70" value="X=Y" style="shape=document;whiteSpace=wrap;html=1;boundedLbl=1;strokeColor=#000000;" vertex="1" parent="WIyWlLk6GJQsqaUBKTNV-1">
          <mxGeometry x="470" y="1005" width="100" height="70" as="geometry" />
        </mxCell>
        <mxCell id="-UChJ8_I69v-dSxYp6aU-78" value="FIM" style="rounded=1;whiteSpace=wrap;html=1;strokeColor=#000000;" vertex="1" parent="WIyWlLk6GJQsqaUBKTNV-1">
          <mxGeometry x="310" y="1010" width="120" height="60" as="geometry" />
        </mxCell>
      </root>
    </mxGraphModel>
  </diagram>
</mxfile>
